<mxfile host="app.diagrams.net" modified="2024-06-20T15:16:49.085Z" agent="Mozilla/5.0 (Macintosh; Intel Mac OS X 10_15_7) AppleWebKit/537.36 (KHTML, like Gecko) Chrome/113.0.0.0 Safari/537.36 Edg/113.0.1774.57" version="24.5.5" etag="QQh80objK4TA7UUkitai" type="github">
  <diagram name="第 1 页" id="G0IeFJUvHchckW6C1_LC">
    <mxGraphModel>
      <root>
        <mxCell id="0" />
        <mxCell id="1" parent="0" />
      </root>
    </mxGraphModel>
  </diagram>
</mxfile>
